<?xml version="1.0" standalone="no"?>
<!DOCTYPE svg PUBLIC "-//W3C//DTD SVG 20010904//EN"
 "http://www.w3.org/TR/2001/REC-SVG-20010904/DTD/svg10.dtd">
<svg version="1.0" xmlns="http://www.w3.org/2000/svg"
 width="990.000000pt" height="990.000000pt" viewBox="0 0 990.000000 990.000000"
 preserveAspectRatio="xMidYMid meet">
<metadata>
Created by potrace 1.14, written by Peter Selinger 2001-2017
</metadata>
<g transform="translate(0.000000,990.000000) scale(0.100000,-0.100000)"
fill="#000000" stroke="none">
<path d="M4760 9710 c-173 -36 -215 -57 -633 -309 -199 -119 -504 -303 -677
-407 -173 -104 -316 -192 -318 -196 -2 -5 -8 -8 -12 -8 -5 0 -159 -91 -342
-201 -183 -111 -346 -209 -363 -219 -153 -88 -1114 -672 -1160 -705 -221 -158
-377 -432 -403 -710 -4 -44 -6 -969 -5 -2055 1 -1967 2 -1975 22 -2065 12 -49
23 -94 25 -100 2 -5 7 -20 11 -33 51 -160 216 -376 366 -479 35 -24 316 -196
511 -312 14 -9 59 -36 100 -61 40 -25 82 -50 93 -56 11 -6 39 -22 62 -37 24
-15 47 -27 53 -27 5 0 10 -4 10 -10 0 -5 5 -10 11 -10 6 0 23 -8 37 -19 15
-10 46 -29 68 -42 23 -13 309 -185 635 -382 327 -197 601 -363 609 -368 8 -5
76 -45 150 -89 74 -44 142 -85 150 -90 8 -5 168 -101 355 -213 394 -237 410
-246 490 -275 190 -70 393 -79 620 -28 73 17 201 80 370 181 33 20 1118 673
1587 956 323 195 662 399 704 424 255 152 748 451 770 468 59 45 192 184 231
242 76 113 142 270 158 373 3 21 8 49 11 62 9 38 10 3986 2 4054 -17 128 -40
209 -93 323 -70 149 -197 302 -327 391 -64 44 -510 312 -520 312 -4 0 -8 5 -8
10 0 6 -5 10 -10 10 -6 0 -47 23 -91 50 -44 28 -83 50 -85 50 -3 0 -10 5 -17
10 -14 13 -490 300 -592 358 -16 9 -32 19 -35 22 -3 3 -17 12 -32 20 -15 8
-76 44 -134 80 -59 36 -123 75 -143 86 -20 12 -333 200 -696 419 -363 219
-672 405 -687 414 -274 164 -386 202 -613 207 -96 2 -153 -2 -215 -16z m355
-505 c28 -9 88 -39 135 -67 120 -69 124 -72 130 -79 3 -3 25 -17 50 -30 25
-14 56 -32 70 -41 14 -9 43 -27 66 -40 22 -12 171 -102 330 -198 159 -96 297
-179 307 -185 9 -5 81 -49 160 -96 676 -408 1468 -885 1492 -899 17 -10 116
-70 220 -134 105 -64 199 -120 210 -126 115 -53 233 -204 266 -340 10 -45 13
-428 13 -2010 -1 -1075 -3 -1973 -7 -1996 -8 -56 -41 -141 -76 -194 -55 -87
-113 -131 -406 -307 -159 -96 -444 -268 -633 -381 -188 -114 -355 -214 -370
-223 -15 -9 -132 -80 -261 -158 -129 -77 -238 -141 -243 -141 -4 0 -8 -4 -8
-10 0 -5 -4 -10 -9 -10 -5 0 -85 -46 -178 -102 -1154 -697 -1221 -736 -1298
-754 -93 -23 -233 -11 -318 26 -25 11 -263 152 -529 312 -266 160 -494 298
-508 305 -14 8 -37 22 -52 31 -26 17 -260 159 -327 198 -35 21 -557 335 -1086
654 -148 90 -283 171 -300 180 -16 9 -56 33 -87 53 -31 21 -61 37 -67 37 -5 0
-11 4 -13 8 -2 5 -32 25 -68 46 -142 82 -181 108 -229 158 -58 60 -113 159
-132 238 -10 44 -13 441 -12 2010 0 1075 3 1973 6 1995 10 62 23 99 57 164 57
106 109 147 455 356 354 213 1121 675 1455 876 118 71 222 133 230 139 8 5 31
19 50 30 19 11 53 32 75 45 22 14 47 28 55 32 8 4 17 9 20 13 3 3 59 38 125
77 66 39 287 171 490 293 426 257 456 271 605 266 57 -2 115 -10 145 -21z"/>
<path d="M4897 8454 c-1 -1 -33 -4 -72 -7 -118 -10 -247 -50 -370 -116 -38
-21 -173 -100 -300 -176 -126 -75 -250 -149 -275 -163 -25 -13 -52 -31 -61
-38 -8 -8 -19 -14 -22 -14 -4 0 -37 -19 -74 -42 -38 -23 -77 -46 -88 -52 -35
-20 -718 -427 -782 -467 -34 -22 -65 -39 -68 -39 -3 0 -18 -9 -33 -19 -15 -10
-124 -76 -242 -146 -311 -185 -368 -228 -477 -360 -107 -131 -184 -312 -211
-495 -10 -63 -9 -2783 1 -2848 29 -202 129 -408 269 -552 109 -113 100 -107
593 -400 132 -79 254 -151 270 -160 17 -10 94 -56 173 -104 79 -47 145 -86
148 -86 3 0 10 -5 17 -10 9 -8 225 -137 417 -249 8 -5 123 -74 254 -153 132
-78 245 -144 253 -146 7 -2 13 -7 13 -12 0 -4 8 -10 18 -13 9 -4 35 -17 57
-31 152 -95 263 -148 375 -177 174 -45 333 -44 515 2 107 28 191 68 387 185
89 54 172 103 183 108 20 11 605 360 840 501 66 40 278 166 470 280 526 313
546 325 595 364 206 163 344 407 378 666 11 80 9 2798 -2 2860 -47 282 -216
535 -463 694 -134 86 -983 591 -994 591 -5 0 -9 3 -9 8 0 4 -17 16 -37 27 -21
11 -217 127 -436 258 -219 130 -400 237 -402 237 -2 0 -24 14 -48 30 -25 17
-50 30 -56 30 -6 0 -11 5 -11 10 0 6 -4 10 -10 10 -5 0 -39 18 -74 40 -188
115 -349 166 -539 173 -37 1 -69 2 -70 1z m158 -515 c69 -16 134 -51 555 -303
323 -194 399 -239 500 -297 14 -8 27 -17 30 -20 3 -3 12 -8 20 -12 8 -4 24
-13 35 -19 27 -18 90 -56 128 -77 18 -10 100 -59 182 -108 83 -50 305 -183
495 -296 190 -113 364 -222 387 -241 56 -49 116 -141 145 -223 l23 -68 0
-1375 c0 -1328 -1 -1377 -19 -1433 -42 -127 -147 -252 -262 -312 -22 -11 -43
-23 -49 -28 -5 -4 -134 -81 -285 -171 -151 -90 -439 -261 -640 -381 -201 -120
-378 -226 -395 -235 -16 -10 -100 -59 -185 -110 -85 -51 -175 -104 -200 -118
-25 -13 -52 -30 -60 -37 -8 -7 -35 -23 -59 -36 -24 -13 -51 -29 -60 -34 -201
-126 -274 -155 -396 -156 -148 -2 -172 8 -534 225 -106 64 -195 116 -197 116
-3 0 -17 9 -32 19 -15 11 -202 123 -417 250 -214 127 -397 235 -405 241 -17
10 -503 299 -539 321 -14 8 -30 18 -35 22 -6 4 -70 43 -141 85 -72 42 -147 92
-167 111 -53 48 -105 128 -136 207 l-27 69 -1 1358 c-1 1053 1 1371 11 1418
32 154 122 265 300 371 61 36 261 155 445 265 184 110 436 260 560 334 124 74
229 136 235 138 5 2 40 24 77 47 37 24 69 44 71 44 2 0 125 73 273 161 148 89
289 173 314 187 25 14 56 32 70 41 102 68 249 91 385 60z"/>
<path d="M4811 6909 c-101 -20 -196 -68 -571 -291 -217 -129 -469 -279 -560
-333 -91 -54 -185 -114 -210 -134 -135 -106 -221 -246 -257 -416 -12 -58 -15
-190 -14 -770 0 -385 3 -718 6 -740 34 -214 142 -385 316 -498 30 -19 257
-155 504 -302 248 -147 467 -278 487 -291 21 -13 40 -24 44 -24 3 0 19 -9 35
-21 37 -26 171 -75 229 -84 128 -19 222 -11 340 27 71 23 92 34 265 138 65 38
119 70 121 70 1 0 46 27 99 60 53 33 99 60 102 60 3 0 25 14 50 30 24 17 46
30 48 30 2 0 39 22 83 49 44 27 83 50 88 52 5 2 95 55 199 118 156 94 203 128
265 191 109 111 178 250 195 395 8 74 9 1390 0 1460 -24 192 -152 395 -315
498 -54 34 -936 560 -975 581 -11 6 -27 16 -35 23 -49 38 -202 100 -291 119
-47 9 -205 11 -248 3z"/>
</g>
</svg>
