<svg width="31" height="31" viewBox="0 0 31 31" fill="none" xmlns="http://www.w3.org/2000/svg">
<path d="M30.5216 26.6361L23.0995 18.9685C22.5673 18.4184 21.9021 18.1982 21.6139 18.4794C21.3247 18.7587 20.659 18.539 20.1268 17.9889L20.0207 17.8788C23.3425 13.5098 23.0201 7.25434 19.0311 3.26527C14.6774 -1.08842 7.6184 -1.08842 3.26526 3.26527C-1.08842 7.61895 -1.08842 14.6769 3.26526 19.0306C7.32229 23.0882 13.7255 23.3599 18.1035 19.8555L18.1501 19.9041C18.6813 20.4542 18.8792 21.1263 18.5891 21.406C18.3004 21.6858 18.4968 22.3584 19.0296 22.9075L26.4477 30.5782C26.9799 31.1268 27.8569 31.1431 28.4076 30.6104L30.4894 28.5961C31.038 28.0647 31.0528 27.1882 30.5216 26.6361ZM16.5812 16.5806C13.5852 19.5771 8.70977 19.5771 5.7142 16.5816C2.71817 13.5856 2.71863 8.70959 5.7142 5.71411C8.70977 2.71808 13.5852 2.71853 16.5802 5.71456C19.5767 8.71013 19.5767 13.5851 16.5812 16.5806Z" fill="#1F0062"/>
</svg>
