<svg width="1920" height="951" viewBox="0 0 1920 951" fill="none" xmlns="http://www.w3.org/2000/svg">
<g filter="url(#filter0_b)">
<path fill-rule="evenodd" clip-rule="evenodd" d="M888.815 951C1052.26 812.418 1156 605.574 1156 374.5C1156 238.23 1119.92 110.386 1056.8 0L0 0V951H888.815Z" fill="#FF9933"/>
<path fill-rule="evenodd" clip-rule="evenodd" d="M888.815 951C1052.26 812.418 1156 605.574 1156 374.5C1156 238.23 1119.92 110.386 1056.8 0L0 0V951H888.815Z" fill="url(#paint0_radial)"/>
</g>
<path fill-rule="evenodd" clip-rule="evenodd" d="M906.348 951C834.513 835.99 793 700.093 793 554.5C793 334.753 887.57 137.093 1038.23 0L1920 0V951H906.348Z" fill="#138808"/>
<path fill-rule="evenodd" clip-rule="evenodd" d="M906.348 951C834.513 835.99 793 700.093 793 554.5C793 334.753 887.57 137.093 1038.23 0L1920 0V951H906.348Z" fill="url(#paint1_radial)"/>
<defs>
<filter id="filter0_b" x="-4" y="-4" width="1164" height="959" filterUnits="userSpaceOnUse" color-interpolation-filters="sRGB">
<feFlood flood-opacity="0" result="BackgroundImageFix"/>
<feGaussianBlur in="BackgroundImage" stdDeviation="2"/>
<feComposite in2="SourceAlpha" operator="in" result="effect1_backgroundBlur"/>
<feBlend mode="normal" in="SourceGraphic" in2="effect1_backgroundBlur" result="shape"/>
</filter>
<radialGradient id="paint0_radial" cx="0" cy="0" r="1" gradientUnits="userSpaceOnUse" gradientTransform="translate(1178.39 764.626) rotate(-151.624) scale(884.121)">
<stop stop-color="white"/>
<stop offset="1" stop-color="white" stop-opacity="0"/>
</radialGradient>
<radialGradient id="paint1_radial" cx="0" cy="0" r="1" gradientUnits="userSpaceOnUse" gradientTransform="translate(919.097 99.6994) rotate(42.668) scale(1329.55)">
<stop stop-color="white"/>
<stop offset="1" stop-color="white" stop-opacity="0"/>
</radialGradient>
</defs>
</svg>
